<?xml version="1.0" encoding="iso-8859-1"?>
<!-- Generator: Adobe Illustrator 19.0.0, SVG Export Plug-In . SVG Version: 6.00 Build 0)  -->
<svg version="1.1" id="Layer_1" xmlns="http://www.w3.org/2000/svg" xmlns:xlink="http://www.w3.org/1999/xlink" x="0px" y="0px"
	 viewBox="0 0 511.999 511.999" style="enable-background:new 0 0 511.999 511.999;" xml:space="preserve">
<g>
	<g>
		<g>
			<path d="M493.74,86.318h-58.841c-3.361,0-6.087,2.726-6.087,6.087v341.018c0,6.143,4.919,11.281,11.062,11.268
				c21.075-0.047,38.464,15.232,42.036,35.032c0.892,4.944,6.969,6.857,10.418,3.205c12.187-12.903,19.671-30.289,19.671-49.398
				V104.578C512,94.494,503.824,86.318,493.74,86.318z"/>
			<path d="M439.972,469.039c-19.579,0-35.508-15.928-35.508-35.508V24.7c0-10.086-8.176-18.26-18.26-18.26H18.26
				C8.176,6.439,0,14.614,0,24.7V433.53c0,39.717,32.319,72.029,72.043,72.029h367.93c10.085,0,18.26-8.176,18.26-18.26
				S450.057,469.039,439.972,469.039z M164.667,409.059H83.732c-6.722,0-12.174-5.45-12.174-12.174v-66.891
				c0-6.724,5.451-12.174,12.174-12.174h80.934c6.722,0,12.174,5.45,12.174,12.174v66.891h0.001
				C176.841,403.609,171.389,409.059,164.667,409.059z M320.732,409.059h-91.617c-6.722,0-12.174-5.45-12.174-12.174
				c0-6.724,5.451-12.174,12.174-12.174h91.617c6.722,0,12.174,5.45,12.174,12.174C332.906,403.609,327.455,409.059,320.732,409.059
				z M320.732,342.168h-91.617c-6.722,0-12.174-5.45-12.174-12.174c0-6.724,5.451-12.174,12.174-12.174h91.617
				c6.722,0,12.174,5.45,12.174,12.174C332.906,336.718,327.455,342.168,320.732,342.168z M320.732,275.278H83.732
				c-6.722,0-12.174-5.45-12.174-12.174s5.451-12.174,12.174-12.174h237.001c6.722,0,12.174,5.45,12.174,12.174
				S327.455,275.278,320.732,275.278z M332.906,196.213c0,6.724-5.451,12.174-12.174,12.174H83.732
				c-6.722,0-12.174-5.45-12.174-12.174v-91.635c0-6.724,5.451-12.174,12.174-12.174h237.001c6.722,0,12.174,5.45,12.174,12.174
				V196.213z"/>
		</g>
	</g>
</g>
<g>
</g>
<g>
</g>
<g>
</g>
<g>
</g>
<g>
</g>
<g>
</g>
<g>
</g>
<g>
</g>
<g>
</g>
<g>
</g>
<g>
</g>
<g>
</g>
<g>
</g>
<g>
</g>
<g>
</g>
</svg>
